<svg width="390" height="92" viewBox="0 0 390 92" fill="none" xmlns="http://www.w3.org/2000/svg" role="img" aria-labelledby="title desc">
  <title id="title">AMERA</title>
  <desc id="desc">Amera wordmark with blue and cyan angular mark.</desc>
  <path d="M18 76L46 16H61L89 76H73L67 62H40L34 76H18ZM45 49H62L53 29L45 49Z" fill="#0B4B8F"/>
  <path d="M104 76V16H123L140 50L157 16H176V76H161V40L145 70H135L119 40V76H104Z" fill="#0B4B8F"/>
  <path d="M199 76V16H248V30H215V39H244V52H215V62H249V76H199Z" fill="#0B4B8F"/>
  <path d="M270 76V16H300C309 16 316 18 321 23C326 27 328 33 328 41C328 49 325 56 318 60L331 76H313L302 63H286V76H270ZM286 50H299C303 50 306 49 308 47C310 46 311 43 311 40C311 37 310 35 308 33C306 31 303 30 299 30H286V50Z" fill="#0B4B8F"/>
  <path d="M340 76L368 16H383L411 76H395L389 62H362L356 76H340ZM367 49H384L375 29L367 49Z" fill="#0B4B8F" transform="translate(-22 0)"/>
  <path d="M45 13C50 9 56 7 64 7C72 7 78 9 83 13L77 31C73 29 69 28 64 28C59 28 55 29 51 31L45 13Z" fill="#8EEAF2"/>
  <path d="M51 33C55 31 59 30 64 30C69 30 73 31 77 33L72 49C69 47 67 46 64 46C61 46 59 47 56 49L51 33Z" fill="#33C4EE"/>
  <path d="M56 52C59 49 61 48 64 48C67 48 69 49 72 52L67 65H61L56 52Z" fill="#0D73C7"/>
</svg>
